<svg xmlns="http://www.w3.org/2000/svg" viewBox="0 0 756 320" width="756" height="320" font-family="ui-monospace, SFMono-Regular, Menlo, Consolas, 'Liberation Mono', monospace" font-size="14"><rect x="0.5" y="0.5" width="755" height="319" rx="10" fill="#0d1117" stroke="#30363d"/><path d="M0.5 34 V10.5 a10 10 0 0 1 10 -10 H746 a10 10 0 0 1 10 10 V34 Z" fill="#161b22"/><line x1="0.5" y1="34" x2="756" y2="34" stroke="#30363d"/><circle cx="20" cy="17.0" r="6" fill="#ff5f57"/><circle cx="40" cy="17.0" r="6" fill="#febc2e"/><circle cx="60" cy="17.0" r="6" fill="#28c840"/><text x="20" y="64" xml:space="preserve"><tspan fill="#3fb950">$</tspan><tspan fill="#e6edf3"> swift package benchmark list</tspan></text><text x="20" y="85" fill="#c9d1d9" xml:space="preserve">WordsPerformance.Count words arguments=1000 size=1000</text><text x="20" y="106" fill="#c9d1d9" xml:space="preserve">WordsPerformance.Count words arguments=10000 size=10000</text><text x="20" y="127" fill="#c9d1d9" xml:space="preserve">WordsPerformance.Count words arguments=100000 size=100000</text><text x="20" y="148" xml:space="preserve"><tspan fill="#3fb950">$</tspan><tspan fill="#e6edf3"> swift package --configuration release benchmark check \</tspan></text><text x="20" y="169" fill="#e6edf3" xml:space="preserve">    --baseline Benchmarks/baseline.json --baseline-metric p95 --threshold-percent 10</text><text x="20" y="190" fill="#c9d1d9" xml:space="preserve">Benchmark Report run:benchmark-host</text><text x="20" y="211" fill="#c9d1d9" xml:space="preserve">Schema: 2</text><text x="20" y="232" fill="#c9d1d9" xml:space="preserve">Verdict: passed</text><text x="20" y="253" fill="#c9d1d9" xml:space="preserve"></text><text x="20" y="274" fill="#c9d1d9" xml:space="preserve">[WordsPerformance]</text><text x="20" y="295" fill="#c9d1d9" xml:space="preserve">Count words: mean 7.917 ms, p95 21.694 ms, budgets 0/0, causes 0, verdict passed</text></svg>